<?xml version="1.0" standalone="no"?>
<!DOCTYPE svg PUBLIC "-//W3C//DTD SVG 20010904//EN"
 "http://www.w3.org/TR/2001/REC-SVG-20010904/DTD/svg10.dtd">
<svg version="1.0" xmlns="http://www.w3.org/2000/svg"
 width="512.000000pt" height="512.000000pt" viewBox="0 0 512.000000 512.000000"
 preserveAspectRatio="xMidYMid meet">

<g transform="translate(0.000000,512.000000) scale(0.100000,-0.100000)"
fill="#000000" stroke="none">
<path d="M1599 4466 c-112 -32 -221 -121 -272 -222 -97 -194 -34 -429 146
-545 86 -55 150 -72 258 -67 76 4 97 9 162 41 143 71 228 199 235 358 5 106
-12 171 -67 256 -45 70 -125 135 -203 165 -67 25 -196 33 -259 14z"/>
<path d="M3300 4464 c-116 -31 -214 -115 -271 -229 -32 -66 -34 -75 -34 -180
0 -103 2 -114 32 -177 44 -94 109 -160 202 -206 73 -36 78 -37 186 -37 106 0
113 2 180 34 264 130 325 464 124 676 -109 115 -267 160 -419 119z"/>
<path d="M1620 2976 c-173 -37 -302 -173 -333 -350 -23 -134 28 -283 128 -375
171 -155 416 -156 580 0 92 87 135 185 135 309 0 123 -43 222 -133 308 -65 61
-119 89 -206 108 -78 16 -98 16 -171 0z"/>
<path d="M3336 2979 c-82 -13 -167 -62 -234 -133 -74 -80 -103 -148 -110 -262
-8 -137 33 -238 133 -333 247 -234 650 -95 708 243 22 132 -22 266 -120 365
-65 64 -139 104 -227 120 -66 12 -79 12 -150 0z"/>
<path d="M1578 1475 c-68 -22 -167 -93 -210 -150 -62 -82 -82 -144 -82 -260
-1 -92 1 -105 31 -168 79 -167 248 -269 422 -254 133 11 252 81 322 190 55 85
72 150 67 256 -7 159 -92 287 -236 358 -68 34 -83 38 -171 40 -64 2 -111 -2
-143 -12z"/>
<path d="M3285 1472 c-120 -41 -205 -117 -258 -230 -39 -83 -49 -206 -23 -293
91 -314 491 -411 715 -174 148 156 160 380 31 551 -48 63 -139 127 -214 149
-67 20 -189 19 -251 -3z"/>
</g>
</svg>
